<svg width="337" height="350" viewBox="0 0 337 350" fill="none" xmlns="http://www.w3.org/2000/svg">
<path d="M0 180L137 111L132.303 161.717L0 180Z" fill="#00649C"/>
<path d="M130.514 113.998L135 112L123.011 161.881L112 163L130.514 113.998Z" fill="#005281"/>
<path d="M149.114 349L59 331.804L149.114 68.7638L240.978 12L244 88.7465L149.114 349Z" fill="#00649C"/>
<path d="M293 24L241 12.5L243.302 64L298 58.5694L296.253 28.8981L293 24Z" fill="#0175B6"/>
<path d="M272 60.7553L275.321 41.367L295.881 29L296.118 44L337 69.5319L330.12 74L272 60.7553Z" fill="#0175B6"/>
<path d="M333 72.3139L275.593 41L272 60.5109L330.924 74L333 72.3139Z" fill="#00649C"/>
<path d="M296.191 29L275 41.1993L297 53L296.191 29Z" fill="#005889"/>
<path d="M238.181 0L149 69L240.818 12.4728L293 24.3859V17.9096L238.181 0Z" fill="#0175B6"/>
<path d="M248.522 245.075L244.204 89L148 348.568L163.914 350L167.433 345.943L227.33 350L214.215 318.976L224.052 318.26L213.496 298.055L255 251.678L248.522 245.075Z" fill="#F1F1F1"/>
<path d="M239.619 8L149 69L240.818 12.6188L293 24.4843V23.1305L239.619 8Z" fill="#00476F"/>
<path d="M245.5 13.5L241 12.5L242.5 64.5L248 63.5278L245.5 13.5Z" fill="#004D78"/>
<path d="M248 246L201 204.353L203.162 199L248 238.049V246Z" fill="#D2D2D2"/>
<path d="M168 346.121L213.234 298L215.752 302.636L213.234 305.274L220 318.623L214.1 319.103L210.717 310.55L178.306 347L168 346.121Z" fill="#C1C1C1"/>
<path d="M297 44L298.762 44.9518V51.5354L334 71.4448L333.199 72L298.442 53.2805L297.16 52.6459L297 44Z" fill="#0175B6"/>
<path d="M277.852 39L275 40.883L297 53L296.919 49.9708L277.852 39Z" fill="#003A71"/>
<path d="M154.485 114L13 239L211 171.809L154.485 114Z" fill="#005281"/>
</svg>
